<svg width="909" height="908" viewBox="0 0 909 908" fill="none" xmlns="http://www.w3.org/2000/svg">
<path d="M495.607 173.781C495.607 173.781 434.74 310.245 273.774 278.983C112.807 247.722 15.8257 467.659 168.005 547.854C320.185 628.048 214.721 720.172 316.214 767.229C431.569 820.71 474.585 641.874 559.568 658.484C747.128 695.143 863.148 632.272 811.847 547.666C721.794 399.151 656.408 404.619 682.979 308.712C709.551 212.805 559.49 65.5711 495.607 173.781Z" fill="#4B3788"/>
<path d="M466.226 485.24C452.083 512.316 448.514 526.706 405.612 553.572C405.278 553.79 405.029 554.113 404.903 554.49C398.049 575.716 386.446 595.104 370.975 611.184C370.767 611.398 370.62 611.665 370.551 611.956C370.482 612.246 370.492 612.55 370.582 612.835C375.383 628.798 380.581 657.578 366.121 681.168C344.866 715.899 329.124 694.929 332.403 687.065C335.21 680.329 359.194 665.86 353.657 629.715C353.61 629.426 353.49 629.154 353.308 628.925C353.125 628.695 352.887 628.517 352.615 628.406C352.344 628.296 352.048 628.257 351.757 628.293C351.466 628.33 351.19 628.44 350.954 628.615C333.57 641.218 313.618 649.837 292.518 653.857C292.284 653.895 292.06 653.983 291.863 654.114C291.665 654.245 291.497 654.417 291.37 654.618C291.244 654.818 291.161 655.044 291.129 655.279C291.096 655.513 291.113 655.753 291.18 655.98C296.559 675.219 299.104 705.285 276.643 732.936C264.651 747.352 248.75 726.278 264.651 711.916C274.517 703.03 273.756 677.474 269.138 657.79C269.05 657.408 268.832 657.068 268.52 656.829C268.209 656.59 267.825 656.467 267.432 656.48C266.514 656.506 265.569 656.506 264.651 656.506C232.195 656.554 200.641 645.841 174.937 626.046C174.702 625.862 174.423 625.743 174.128 625.7C173.833 625.657 173.531 625.691 173.253 625.799C172.975 625.908 172.73 626.087 172.542 626.318C172.355 626.55 172.23 626.826 172.182 627.12C166.015 667.799 190.498 681.875 193.987 692.308C197.871 703.971 188.949 714.351 177.955 711.416C177.716 711.344 177.494 711.229 177.299 711.074C141.455 684.182 144.577 627.828 148.513 600.7C148.549 600.478 148.538 600.251 148.479 600.034C148.42 599.817 148.315 599.615 148.172 599.442C128.128 573.676 117.276 541.959 117.34 509.328C117.34 449.488 153.105 397.983 204.457 374.997C204.46 374.997 204.464 374.996 204.467 374.995C204.47 374.994 204.473 374.992 204.476 374.989C204.478 374.987 204.48 374.984 204.481 374.981C204.483 374.978 204.483 374.974 204.483 374.971C212.381 364.983 222.011 350.856 223.481 340.949C223.53 340.613 223.677 340.299 223.905 340.048C224.133 339.797 224.431 339.619 224.76 339.537C225.09 339.455 225.436 339.474 225.755 339.59C226.074 339.706 226.351 339.914 226.551 340.188C230.33 345.273 236.181 354.971 234.896 365.194C234.843 365.534 234.817 365.875 234.764 366.216C234.659 366.793 234.528 367.343 234.397 367.92C234.266 368.365 234.161 368.811 234.003 369.257C235.839 367.727 237.59 366.099 239.249 364.381C243.106 360.424 247.987 354.473 250.086 348.104C250.185 347.764 250.388 347.464 250.665 347.244C250.942 347.023 251.281 346.894 251.635 346.874C251.989 346.855 252.34 346.945 252.641 347.132C252.941 347.32 253.176 347.596 253.313 347.923C254.676 351.278 256.278 355.969 256.829 360.766C256.876 361.196 257.083 361.593 257.408 361.879C257.733 362.165 258.154 362.32 258.587 362.312C260.608 362.234 262.628 362.181 264.649 362.181C346.018 362.181 411.986 428.076 411.986 509.33C411.986 511.192 411.959 513.026 411.88 514.86C411.869 515.14 411.926 515.419 412.046 515.672C412.167 515.925 412.347 516.146 412.572 516.313C412.797 516.481 413.059 516.592 413.337 516.635C413.614 516.679 413.897 516.655 414.163 516.564C422.927 513.497 433.974 506.106 440.639 488.518C453.103 455.755 454.415 446.581 450.479 421.025C446.544 395.469 465.569 396.781 469.503 405.298C473.437 413.815 481.969 455.098 466.226 485.24Z" fill="#7F6CBA"/>
<path d="M207.104 522.237C206.602 522.237 206.114 522.07 205.717 521.764C205.32 521.458 205.035 521.028 204.908 520.544C203.918 516.227 203.706 511.769 204.28 507.378C205.572 497.834 210.772 490.818 219.317 487.09C224.901 484.654 230.179 484.513 235.005 486.674C244.897 491.102 249.108 503.659 249.282 504.191C249.451 504.757 249.392 505.368 249.118 505.892C248.843 506.416 248.374 506.812 247.811 506.996C247.249 507.18 246.636 507.138 246.104 506.878C245.573 506.617 245.164 506.16 244.964 505.603C244.928 505.494 241.183 494.401 233.133 490.81C229.529 489.202 225.493 489.35 221.138 491.251C214.067 494.338 209.917 499.922 208.805 507.851C208.296 511.699 208.467 515.607 209.307 519.396C209.459 519.979 209.372 520.598 209.067 521.117C208.762 521.637 208.263 522.014 207.68 522.166C207.492 522.214 207.298 522.238 207.104 522.237Z" fill="white"/>
<path d="M275.608 501.449C275.132 501.449 274.668 501.299 274.282 501.021C273.895 500.743 273.606 500.351 273.455 499.9C272.187 495.675 271.685 491.258 271.973 486.856C272.644 477.288 277.378 469.979 285.664 465.72C291.089 462.932 296.354 462.451 301.318 464.299C311.453 468.067 316.463 480.244 316.671 480.76C316.89 481.317 316.879 481.938 316.642 482.487C316.405 483.037 315.96 483.47 315.404 483.694C314.849 483.917 314.227 483.913 313.675 483.681C313.123 483.45 312.685 483.01 312.456 482.457C312.41 482.351 307.965 471.602 299.715 468.548C296.005 467.173 291.978 467.58 287.744 469.757C280.89 473.28 277.113 479.093 276.518 487.037C276.261 490.889 276.684 494.757 277.767 498.464C277.88 498.805 277.91 499.168 277.855 499.523C277.8 499.878 277.662 500.216 277.451 500.507C277.241 500.798 276.964 501.036 276.644 501.199C276.323 501.363 275.969 501.449 275.609 501.449H275.608Z" fill="white"/>
<path d="M269.826 548.939C254.359 548.939 242.565 538.656 241.975 538.134C241.752 537.936 241.57 537.696 241.44 537.428C241.309 537.16 241.233 536.869 241.215 536.571C241.198 536.274 241.239 535.975 241.337 535.694C241.434 535.412 241.586 535.152 241.785 534.93C241.983 534.707 242.223 534.525 242.491 534.395C242.76 534.264 243.051 534.188 243.349 534.171C243.647 534.153 243.946 534.194 244.228 534.292C244.51 534.389 244.77 534.541 244.993 534.739C245.148 534.875 260.722 548.397 278.256 543.176C295.709 537.981 300.496 515.845 300.542 515.623C300.67 515.039 301.022 514.529 301.524 514.203C302.025 513.877 302.635 513.762 303.221 513.883C303.807 514.003 304.322 514.349 304.654 514.846C304.985 515.344 305.108 515.951 304.994 516.538C303.913 521.123 302.221 525.542 299.962 529.677C294.973 538.866 287.918 545.038 279.555 547.527C276.398 548.467 273.12 548.943 269.826 548.939V548.939Z" fill="white"/>
<path d="M759.697 447.902C759.502 452.83 759 457.742 758.194 462.609C747.238 529.554 684.058 574.932 617.038 563.987C550.045 553.048 504.591 489.932 515.548 422.986C516.247 418.718 517.17 414.542 518.262 410.468C468.556 376.75 471.46 311.729 480.988 304.521C490.611 297.221 501.117 303.372 500.02 323.564C498.89 352.886 516.963 377.136 526.987 387.698C550.455 340.962 602.323 312.727 656.705 321.607C709.481 330.224 748.852 371.206 757.867 420.909C767.705 417.337 785.079 407.027 799.154 377.72C801.12 371.88 801.663 367.586 801.768 365C801.838 362.585 802.783 360.276 804.426 358.503C807.505 355.287 812.955 351.874 819.995 357.114C821.596 358.31 822.886 359.872 823.758 361.668C824.63 363.465 825.058 365.445 825.005 367.441C824.564 383.279 811.877 421.816 759.697 447.902Z" fill="#A893E4"/>
<path d="M686.584 469.614C683.481 488.576 657.376 500.089 628.294 495.34C599.186 490.587 578.11 471.369 581.213 452.409C581.803 448.878 583.185 445.526 585.253 442.602C585.819 441.811 586.666 441.266 587.622 441.08C588.577 440.894 589.568 441.082 590.389 441.603C600.809 448.12 617.301 453.866 636.328 456.973C653.84 459.833 670.046 459.876 681.839 457.641C682.8 457.457 683.794 457.649 684.616 458.178C685.439 458.706 686.026 459.53 686.257 460.479C686.966 463.473 687.078 466.577 686.584 469.614Z" fill="white"/>
<path d="M631.402 431.993C631.072 431.993 630.746 431.922 630.447 431.784C630.148 431.646 629.882 431.445 629.668 431.194C629.454 430.943 629.298 430.649 629.21 430.331C629.121 430.014 629.103 429.681 629.156 429.356C629.919 424.695 628.797 419.922 626.037 416.088C623.276 412.253 619.104 409.671 614.438 408.909C609.772 408.147 604.994 409.268 601.155 412.025C597.316 414.782 594.731 418.95 593.968 423.611C593.871 424.205 593.542 424.736 593.052 425.088C592.563 425.439 591.954 425.582 591.359 425.485C590.764 425.388 590.232 425.058 589.88 424.57C589.529 424.081 589.386 423.472 589.483 422.878C590.44 417.029 593.684 411.799 598.502 408.339C603.319 404.879 609.316 403.472 615.171 404.428C621.027 405.384 626.263 408.625 629.727 413.437C633.191 418.25 634.599 424.239 633.642 430.089C633.555 430.62 633.282 431.103 632.872 431.451C632.461 431.8 631.941 431.992 631.402 431.993V431.993Z" fill="white"/>
<path d="M685.915 440.895C685.586 440.894 685.26 440.823 684.961 440.684C684.662 440.546 684.397 440.345 684.183 440.094C683.97 439.843 683.814 439.549 683.725 439.232C683.636 438.915 683.618 438.583 683.67 438.258C684.414 433.605 683.282 428.848 680.521 425.028C677.76 421.207 673.597 418.635 668.942 417.875C664.287 417.115 659.52 418.229 655.685 420.972C651.851 423.716 649.261 427.865 648.483 432.512C648.435 432.807 648.33 433.09 648.174 433.345C648.017 433.599 647.811 433.82 647.568 433.994C647.326 434.169 647.051 434.295 646.76 434.363C646.469 434.432 646.167 434.442 645.872 434.394C645.577 434.346 645.294 434.24 645.04 434.082C644.786 433.925 644.566 433.719 644.392 433.476C644.217 433.233 644.093 432.958 644.025 432.667C643.958 432.376 643.948 432.075 643.997 431.78C644.971 425.946 648.22 420.735 653.033 417.289C657.846 413.844 663.831 412.445 669.674 413.399C675.518 414.353 680.745 417.583 684.209 422.38C687.674 427.177 689.093 433.15 688.156 438.991C688.069 439.522 687.796 440.005 687.386 440.354C686.975 440.702 686.454 440.894 685.915 440.895Z" fill="white"/>
</svg>
