<svg width="173" height="173" viewBox="0 0 173 173" fill="none" xmlns="http://www.w3.org/2000/svg">
<path d="M166.563 129.678C166.563 129.678 166.542 129.664 166.532 129.657L135.172 107.217L91.0805 151.894L91.0385 151.936C91.0385 151.936 91.0209 151.954 91.0104 151.964L90.9929 151.982C90.9929 151.982 90.9824 151.989 90.9789 151.996C88.4508 154.45 84.4081 154.419 81.9187 151.898L80.9124 150.877L37.8274 107.221L6.46734 129.657C6.46734 129.657 6.4463 129.675 6.43578 129.678C3.3713 131.831 -0.59779 128.57 0.937954 125.138L35.5308 47.8316C36.0217 46.7377 36.8456 45.9102 37.8274 45.4088C39.2965 44.6515 41.1127 44.6269 42.666 45.528C42.673 45.5315 42.6765 45.535 42.6836 45.5385L52.4801 51.2713L82.7216 17.1168C84.7272 14.8517 88.265 14.8517 90.2741 17.1168L120.516 51.2643L130.312 45.535L130.323 45.528C131.876 44.6234 133.696 44.6479 135.165 45.4018C136.133 45.8997 136.95 46.7096 137.44 47.7861C137.44 47.7861 137.444 47.7896 137.444 47.7931C137.447 47.8036 137.454 47.8141 137.458 47.8246C137.458 47.8246 137.458 47.8281 137.458 47.8316L172.051 125.138C173.586 128.57 169.617 131.835 166.553 129.678H166.563Z" fill="#8676BE"/>
<path d="M37.8274 45.4031V107.212L6.46734 129.655C6.46734 129.655 6.4463 129.673 6.43578 129.676C3.3713 131.829 -0.59779 128.568 0.937954 125.136L35.5308 47.8294C36.0217 46.7355 36.8456 45.908 37.8274 45.4066V45.4031Z" fill="#A094CE"/>
<path d="M166.567 129.676C166.567 129.676 166.546 129.662 166.536 129.655L135.176 107.215V45.4031C136.144 45.901 136.96 46.7109 137.451 47.7873C137.451 47.7873 137.455 47.7908 137.455 47.7943C137.458 47.8049 137.465 47.8154 137.469 47.8259C137.469 47.8259 137.469 47.8294 137.469 47.8329L172.062 125.139C173.597 128.572 169.628 131.836 166.564 129.68L166.567 129.676Z" fill="#A094CE"/>
<path d="M68.0795 60.3969L37.8169 107.209V45.4041C39.286 44.6468 41.1023 44.6222 42.6555 45.5233C42.6626 45.5269 42.6661 45.5304 42.6731 45.5339L52.4696 51.2631L68.0795 60.3969Z" fill="#BEB7DD"/>
<path d="M135.166 45.4042V107.213L104.9 60.397L120.513 51.2632L130.31 45.5339L130.32 45.5269C131.874 44.6223 133.693 44.6469 135.162 45.4007L135.166 45.4042Z" fill="#BEB7DD"/>
<path d="M135.154 107.212L91.0666 151.889L91.0245 151.931C91.0245 151.931 91.0069 151.948 90.9964 151.959L90.9789 151.976C90.9789 151.976 90.9684 151.983 90.9649 151.99C88.4369 154.445 84.3941 154.413 81.9047 151.892L80.8984 150.872L37.8169 107.215L68.0795 60.3996L82.1536 38.6292C84.1838 35.4875 88.7805 35.4875 90.8141 38.6292L135.154 107.215V107.212Z" fill="#A094CE"/>
</svg>
