<svg width="316" height="270" viewBox="0 0 316 270" fill="none" xmlns="http://www.w3.org/2000/svg">
<path d="M238.063 129.678C238.063 129.678 238.042 129.664 238.032 129.657L206.672 107.217L162.581 151.894L162.538 151.936C162.538 151.936 162.521 151.954 162.51 151.964L162.493 151.982C162.493 151.982 162.482 151.989 162.479 151.996C159.951 154.45 155.908 154.419 153.419 151.898L152.412 150.877L109.327 107.221L77.9673 129.657C77.9673 129.657 77.9463 129.675 77.9358 129.678C74.8713 131.831 70.9022 128.57 72.438 125.138L107.031 47.8316C107.522 46.7377 108.346 45.9102 109.327 45.4088C110.797 44.6515 112.613 44.6269 114.166 45.528C114.173 45.5315 114.177 45.535 114.184 45.5385L123.98 51.2713L154.222 17.1168C156.227 14.8517 159.765 14.8517 161.774 17.1168L192.016 51.2643L201.812 45.535L201.823 45.528C203.376 44.6234 205.196 44.6479 206.665 45.4018C207.633 45.8997 208.45 46.7096 208.94 47.7861C208.94 47.7861 208.944 47.7896 208.944 47.7931C208.947 47.8036 208.954 47.8141 208.958 47.8246C208.958 47.8246 208.958 47.8281 208.958 47.8316L243.551 125.138C245.086 128.57 241.117 131.835 238.053 129.678H238.063Z" fill="#8676BE"/>
<path d="M109.327 45.4031V107.212L77.9673 129.655C77.9673 129.655 77.9463 129.673 77.9358 129.676C74.8713 131.829 70.9022 128.568 72.438 125.136L107.031 47.8294C107.522 46.7355 108.346 45.908 109.327 45.4066V45.4031Z" fill="#A094CE"/>
<path d="M238.067 129.676C238.067 129.676 238.046 129.662 238.036 129.655L206.676 107.215V45.4031C207.644 45.901 208.46 46.7109 208.951 47.7873C208.951 47.7873 208.955 47.7908 208.955 47.7943C208.958 47.8049 208.965 47.8154 208.969 47.8259C208.969 47.8259 208.969 47.8294 208.969 47.8329L243.562 125.139C245.097 128.572 241.128 131.836 238.064 129.68L238.067 129.676Z" fill="#A094CE"/>
<path d="M139.579 60.3969L109.317 107.209V45.4041C110.786 44.6468 112.602 44.6222 114.156 45.5233C114.163 45.5269 114.166 45.5304 114.173 45.5339L123.97 51.2631L139.579 60.3969Z" fill="#BEB7DD"/>
<path d="M206.666 45.4042V107.213L176.4 60.397L192.013 51.2632L201.81 45.5339L201.82 45.5269C203.374 44.6223 205.193 44.6469 206.662 45.4007L206.666 45.4042Z" fill="#BEB7DD"/>
<path d="M206.654 107.212L162.567 151.889L162.524 151.931C162.524 151.931 162.507 151.948 162.496 151.959L162.479 151.976C162.479 151.976 162.468 151.983 162.465 151.99C159.937 154.445 155.894 154.413 153.405 151.892L152.398 150.872L109.317 107.215L139.579 60.3996L153.654 38.6292C155.684 35.4875 160.28 35.4875 162.314 38.6292L206.654 107.215V107.212Z" fill="#A094CE"/>
<path d="M40.56 230.34V267.624C40.56 268.56 40.092 269.028 39.156 269.028C38.22 269.028 37.752 268.56 37.752 267.624L37.44 260.214C34.476 266.376 29.328 269.418 21.996 269.418C17.55 269.418 13.806 267.858 10.764 264.66C7.722 261.462 6.24 256.704 6.24 250.542V230.34C6.24 229.326 6.786 228.78 7.8 228.78C8.814 228.78 9.36 229.326 9.36 230.34V249.528C9.36 260.994 14.976 266.532 22.464 266.532C31.2 266.532 37.44 260.682 37.44 247.968V230.34C37.44 229.326 37.986 228.78 39 228.78C40.014 228.78 40.56 229.326 40.56 230.34ZM88.0114 228.39C92.4574 228.39 96.2014 230.028 99.2434 233.226C102.285 236.424 103.767 241.104 103.767 247.266V267.468C103.767 268.482 103.221 269.028 102.207 269.028C101.193 269.028 100.647 268.482 100.647 267.468V248.28C100.647 236.814 95.0314 231.276 87.5434 231.276C78.8074 231.276 72.5674 237.126 72.5674 249.84V267.468C72.5674 268.482 72.0214 269.028 71.0074 269.028C69.9934 269.028 69.4474 268.482 69.4474 267.468V230.184C69.4474 229.248 69.9154 228.78 70.8514 228.78C71.7874 228.78 72.2554 229.248 72.2554 230.184L72.5674 237.594C75.5314 231.432 80.6794 228.39 88.0114 228.39ZM125.749 231.51H133.471V226.908C133.471 218.094 138.307 213.258 146.341 213.258C148.915 213.258 151.177 213.648 153.049 214.428C153.907 214.818 154.297 215.286 154.297 215.91C154.297 216.768 153.829 217.158 152.893 217.158C152.347 217.158 149.071 216.144 146.341 216.144C140.335 216.144 136.591 219.81 136.591 226.908V231.51H152.503C153.361 231.51 153.751 231.9 153.751 232.758C153.751 233.616 153.361 234.006 152.503 234.006H136.591V267.468C136.591 268.482 136.045 269.028 135.031 269.028C134.017 269.028 133.471 268.482 133.471 267.468V234.006H125.749C124.891 234.006 124.501 233.616 124.501 232.758C124.501 231.9 124.891 231.51 125.749 231.51ZM177.304 263.568C173.404 259.59 171.454 254.754 171.454 248.982C171.454 243.21 173.404 238.374 177.382 234.396C181.36 230.418 186.274 228.39 192.046 228.39C197.818 228.39 202.654 230.34 206.554 234.318C210.532 238.218 212.482 243.054 212.482 248.826C212.482 254.598 210.454 259.512 206.476 263.49C202.498 267.468 197.662 269.418 191.89 269.418C186.118 269.418 181.282 267.468 177.304 263.568ZM179.566 236.346C176.212 239.7 174.574 243.834 174.574 248.904C174.574 253.974 176.212 258.186 179.566 261.54C182.92 264.894 187.054 266.532 191.968 266.532C196.882 266.532 201.016 264.894 204.37 261.54C207.724 258.186 209.362 253.974 209.362 248.904C209.362 243.834 207.724 239.7 204.37 236.346C201.016 232.992 196.882 231.276 191.968 231.276C187.054 231.276 182.92 232.992 179.566 236.346ZM241.886 215.208V267.39C241.886 268.482 241.34 269.028 240.248 269.028C239.156 269.028 238.61 268.482 238.61 267.39V215.208C238.61 214.194 239.156 213.648 240.248 213.648C241.34 213.648 241.886 214.194 241.886 215.208ZM308.609 215.13V267.546C308.609 268.56 308.141 269.028 307.205 269.028C306.269 269.028 305.801 268.56 305.801 267.546L305.489 259.356C301.979 265.596 295.505 269.418 288.017 269.418C282.479 269.418 277.721 267.468 273.821 263.568C269.999 259.59 268.049 254.754 268.049 248.982C268.049 243.21 269.999 238.374 273.899 234.396C277.877 230.418 282.635 228.39 288.173 228.39C295.583 228.39 302.057 232.134 305.489 238.296V215.13C305.489 214.116 306.035 213.648 307.049 213.648C308.063 213.648 308.609 214.116 308.609 215.13ZM276.083 261.54C279.437 264.894 283.571 266.532 288.485 266.532C293.399 266.532 297.533 264.894 300.887 261.54C304.241 258.186 305.879 253.974 305.879 248.904C305.879 243.834 304.241 239.7 300.887 236.346C297.533 232.992 293.399 231.276 288.485 231.276C283.571 231.276 279.437 232.992 276.083 236.346C272.807 239.7 271.169 243.834 271.169 248.904C271.169 253.974 272.807 258.186 276.083 261.54Z" fill="#BEB7DD"/>
</svg>
