<svg width="563" height="173" viewBox="0 0 563 173" fill="none" xmlns="http://www.w3.org/2000/svg">
<path d="M166.563 129.678C166.563 129.678 166.542 129.664 166.532 129.657L135.172 107.217L91.0805 151.894L91.0385 151.936C91.0385 151.936 91.0209 151.954 91.0104 151.964L90.9929 151.982C90.9929 151.982 90.9824 151.989 90.9789 151.996C88.4508 154.45 84.4081 154.419 81.9187 151.898L80.9124 150.877L37.8274 107.221L6.46734 129.657C6.46734 129.657 6.4463 129.675 6.43578 129.678C3.3713 131.831 -0.59779 128.57 0.937954 125.138L35.5308 47.8316C36.0217 46.7377 36.8456 45.9102 37.8274 45.4088C39.2965 44.6515 41.1127 44.6269 42.666 45.528C42.673 45.5315 42.6765 45.535 42.6836 45.5385L52.4801 51.2713L82.7216 17.1168C84.7272 14.8517 88.265 14.8517 90.2741 17.1168L120.516 51.2643L130.312 45.535L130.323 45.528C131.876 44.6234 133.696 44.6479 135.165 45.4018C136.133 45.8997 136.95 46.7096 137.44 47.7861C137.44 47.7861 137.444 47.7896 137.444 47.7931C137.447 47.8036 137.454 47.8141 137.458 47.8246C137.458 47.8246 137.458 47.8281 137.458 47.8316L172.051 125.138C173.586 128.57 169.617 131.835 166.553 129.678H166.563Z" fill="#8676BE"/>
<path d="M37.8274 45.4031V107.212L6.46734 129.655C6.46734 129.655 6.4463 129.673 6.43578 129.676C3.3713 131.829 -0.59779 128.568 0.937954 125.136L35.5308 47.8294C36.0217 46.7355 36.8456 45.908 37.8274 45.4066V45.4031Z" fill="#A094CE"/>
<path d="M166.567 129.676C166.567 129.676 166.546 129.662 166.536 129.655L135.176 107.215V45.4031C136.144 45.901 136.96 46.7109 137.451 47.7873C137.451 47.7873 137.455 47.7908 137.455 47.7943C137.458 47.8049 137.465 47.8154 137.469 47.8259C137.469 47.8259 137.469 47.8294 137.469 47.8329L172.062 125.139C173.597 128.572 169.628 131.836 166.564 129.68L166.567 129.676Z" fill="#A094CE"/>
<path d="M68.0795 60.3969L37.8169 107.209V45.4041C39.286 44.6468 41.1023 44.6222 42.6555 45.5233C42.6626 45.5269 42.6661 45.5304 42.6731 45.5339L52.4696 51.2631L68.0795 60.3969Z" fill="#BEB7DD"/>
<path d="M135.166 45.4042V107.213L104.9 60.397L120.513 51.2632L130.31 45.5339L130.32 45.5269C131.874 44.6223 133.693 44.6469 135.162 45.4007L135.166 45.4042Z" fill="#BEB7DD"/>
<path d="M135.154 107.212L91.0666 151.889L91.0245 151.931C91.0245 151.931 91.0069 151.948 90.9964 151.959L90.9789 151.976C90.9789 151.976 90.9684 151.983 90.9649 151.99C88.4369 154.445 84.3941 154.413 81.9047 151.892L80.8984 150.872L37.8169 107.215L68.0795 60.3996L82.1536 38.6292C84.1838 35.4875 88.7805 35.4875 90.8141 38.6292L135.154 107.215V107.212Z" fill="#A094CE"/>
<path d="M166.563 129.678C166.563 129.678 166.542 129.664 166.532 129.657L135.172 107.217L91.0805 151.894L91.0385 151.936C91.0385 151.936 91.0209 151.954 91.0104 151.964L90.9929 151.982C90.9929 151.982 90.9824 151.989 90.9789 151.996C88.4508 154.45 84.4081 154.419 81.9187 151.898L80.9124 150.877L37.8274 107.221L6.46734 129.657C6.46734 129.657 6.4463 129.675 6.43578 129.678C3.3713 131.831 -0.59779 128.57 0.937954 125.138L35.5308 47.8316C36.0217 46.7377 36.8456 45.9102 37.8274 45.4088C39.2965 44.6515 41.1127 44.6269 42.666 45.528C42.673 45.5315 42.6765 45.535 42.6836 45.5385L52.4801 51.2713L82.7216 17.1168C84.7272 14.8517 88.265 14.8517 90.2741 17.1168L120.516 51.2643L130.312 45.535L130.323 45.528C131.876 44.6234 133.696 44.6479 135.165 45.4018C136.133 45.8997 136.95 46.7096 137.44 47.7861C137.44 47.7861 137.444 47.7896 137.444 47.7931C137.447 47.8036 137.454 47.8141 137.458 47.8246C137.458 47.8246 137.458 47.8281 137.458 47.8316L172.051 125.138C173.586 128.57 169.617 131.835 166.553 129.678H166.563Z" fill="#C1A7FF"/>
<path d="M37.8274 45.4031V107.212L6.46734 129.655C6.46734 129.655 6.4463 129.673 6.43578 129.676C3.3713 131.829 -0.59779 128.568 0.937954 125.136L35.5308 47.8294C36.0217 46.7355 36.8456 45.908 37.8274 45.4066V45.4031Z" fill="white"/>
<path d="M166.567 129.676C166.567 129.676 166.546 129.662 166.536 129.655L135.176 107.215V45.4031C136.144 45.901 136.96 46.7109 137.451 47.7873C137.451 47.7873 137.455 47.7908 137.455 47.7943C137.458 47.8049 137.465 47.8154 137.469 47.8259C137.469 47.8259 137.469 47.8294 137.469 47.8329L172.062 125.139C173.597 128.572 169.628 131.836 166.564 129.68L166.567 129.676Z" fill="white"/>
<path d="M68.0795 60.3969L37.8169 107.209V45.4041C39.286 44.6468 41.1023 44.6222 42.6555 45.5233C42.6626 45.5269 42.6661 45.5304 42.6731 45.5339L52.4696 51.2631L68.0795 60.3969Z" fill="#DACAFF"/>
<path d="M135.166 45.4042V107.213L104.9 60.397L120.513 51.2632L130.31 45.5339L130.32 45.5269C131.874 44.6223 133.693 44.6469 135.162 45.4007L135.166 45.4042Z" fill="#DACAFF"/>
<path d="M135.154 107.212L91.0666 151.889L91.0245 151.931C91.0245 151.931 91.0069 151.948 90.9964 151.959L90.9789 151.976C90.9789 151.976 90.9684 151.983 90.9649 151.99C88.4369 154.445 84.3941 154.413 81.9047 151.892L80.8984 150.872L37.8169 107.215L68.0795 60.3996L82.1536 38.6292C84.1838 35.4875 88.7805 35.4875 90.8141 38.6292L135.154 107.215V107.212Z" fill="white"/>
<path d="M287.452 72.202V109.486C287.452 110.422 286.984 110.89 286.048 110.89C285.112 110.89 284.644 110.422 284.644 109.486L284.332 102.076C281.368 108.238 276.22 111.28 268.888 111.28C264.442 111.28 260.698 109.72 257.656 106.522C254.614 103.324 253.132 98.566 253.132 92.404V72.202C253.132 71.188 253.678 70.642 254.692 70.642C255.706 70.642 256.252 71.188 256.252 72.202V91.39C256.252 102.856 261.868 108.394 269.356 108.394C278.092 108.394 284.332 102.544 284.332 89.83V72.202C284.332 71.188 284.878 70.642 285.892 70.642C286.906 70.642 287.452 71.188 287.452 72.202ZM334.904 70.252C339.35 70.252 343.094 71.89 346.136 75.088C349.178 78.286 350.66 82.966 350.66 89.128V109.33C350.66 110.344 350.114 110.89 349.1 110.89C348.086 110.89 347.54 110.344 347.54 109.33V90.142C347.54 78.676 341.924 73.138 334.436 73.138C325.7 73.138 319.46 78.988 319.46 91.702V109.33C319.46 110.344 318.914 110.89 317.9 110.89C316.886 110.89 316.34 110.344 316.34 109.33V72.046C316.34 71.11 316.808 70.642 317.744 70.642C318.68 70.642 319.148 71.11 319.148 72.046L319.46 79.456C322.424 73.294 327.572 70.252 334.904 70.252ZM372.641 73.372H380.363V68.77C380.363 59.956 385.199 55.12 393.233 55.12C395.807 55.12 398.069 55.51 399.941 56.29C400.799 56.68 401.189 57.148 401.189 57.772C401.189 58.63 400.721 59.02 399.785 59.02C399.239 59.02 395.963 58.006 393.233 58.006C387.227 58.006 383.483 61.672 383.483 68.77V73.372H399.395C400.253 73.372 400.643 73.762 400.643 74.62C400.643 75.478 400.253 75.868 399.395 75.868H383.483V109.33C383.483 110.344 382.937 110.89 381.923 110.89C380.909 110.89 380.363 110.344 380.363 109.33V75.868H372.641C371.783 75.868 371.393 75.478 371.393 74.62C371.393 73.762 371.783 73.372 372.641 73.372ZM424.196 105.43C420.296 101.452 418.346 96.616 418.346 90.844C418.346 85.072 420.296 80.236 424.274 76.258C428.252 72.28 433.166 70.252 438.938 70.252C444.71 70.252 449.546 72.202 453.446 76.18C457.424 80.08 459.374 84.916 459.374 90.688C459.374 96.46 457.346 101.374 453.368 105.352C449.39 109.33 444.554 111.28 438.782 111.28C433.01 111.28 428.174 109.33 424.196 105.43ZM426.458 78.208C423.104 81.562 421.466 85.696 421.466 90.766C421.466 95.836 423.104 100.048 426.458 103.402C429.812 106.756 433.946 108.394 438.86 108.394C443.774 108.394 447.908 106.756 451.262 103.402C454.616 100.048 456.254 95.836 456.254 90.766C456.254 85.696 454.616 81.562 451.262 78.208C447.908 74.854 443.774 73.138 438.86 73.138C433.946 73.138 429.812 74.854 426.458 78.208ZM488.778 57.07V109.252C488.778 110.344 488.232 110.89 487.14 110.89C486.048 110.89 485.502 110.344 485.502 109.252V57.07C485.502 56.056 486.048 55.51 487.14 55.51C488.232 55.51 488.778 56.056 488.778 57.07ZM555.501 56.992V109.408C555.501 110.422 555.033 110.89 554.097 110.89C553.161 110.89 552.693 110.422 552.693 109.408L552.381 101.218C548.871 107.458 542.397 111.28 534.909 111.28C529.371 111.28 524.613 109.33 520.713 105.43C516.891 101.452 514.941 96.616 514.941 90.844C514.941 85.072 516.891 80.236 520.791 76.258C524.769 72.28 529.527 70.252 535.065 70.252C542.475 70.252 548.949 73.996 552.381 80.158V56.992C552.381 55.978 552.927 55.51 553.941 55.51C554.955 55.51 555.501 55.978 555.501 56.992ZM522.975 103.402C526.329 106.756 530.463 108.394 535.377 108.394C540.291 108.394 544.425 106.756 547.779 103.402C551.133 100.048 552.771 95.836 552.771 90.766C552.771 85.696 551.133 81.562 547.779 78.208C544.425 74.854 540.291 73.138 535.377 73.138C530.463 73.138 526.329 74.854 522.975 78.208C519.699 81.562 518.061 85.696 518.061 90.766C518.061 95.836 519.699 100.048 522.975 103.402Z" fill="#BEB7DD"/>
</svg>
