<svg width="280" height="64" viewBox="0 0 280 64" fill="none" xmlns="http://www.w3.org/2000/svg">
<path d="M61.6189 47.9735C61.6189 47.9735 61.6111 47.9684 61.6072 47.9658L50.0058 39.6642L33.6946 56.1921L33.679 56.2076C33.679 56.2076 33.6725 56.2141 33.6686 56.218L33.6621 56.2245C33.6621 56.2245 33.6582 56.2271 33.6569 56.2297C32.7217 57.1377 31.2262 57.126 30.3052 56.1934L29.9329 55.8159L13.994 39.6655L2.39257 47.9658C2.39257 47.9658 2.38478 47.9722 2.38089 47.9735C1.24721 48.77 -0.221121 47.5637 0.347016 46.2938L13.1444 17.695C13.326 17.2903 13.6308 16.9842 13.994 16.7987C14.5375 16.5185 15.2094 16.5094 15.784 16.8428C15.7866 16.8441 15.7879 16.8454 15.7905 16.8467L19.4146 18.9674L30.6022 6.33225C31.3442 5.49431 32.653 5.49431 33.3962 6.33225L44.5838 18.9649L48.208 16.8454L48.2119 16.8428C48.7865 16.5081 49.4597 16.5172 50.0032 16.7961C50.3612 16.9803 50.6634 17.2799 50.845 17.6781C50.845 17.6781 50.8463 17.6794 50.8463 17.6807C50.8476 17.6846 50.8502 17.6885 50.8515 17.6924C50.8515 17.6924 50.8515 17.6937 50.8515 17.695L63.6489 46.2938C64.217 47.5637 62.7487 48.7713 61.615 47.9735H61.6189Z" fill="#C1A7FF"/>
<path d="M13.994 16.7966V39.6621L2.39263 47.965C2.39263 47.965 2.38485 47.9714 2.38095 47.9727C1.24728 48.7692 -0.22106 47.5629 0.347077 46.293L13.1444 17.6942C13.326 17.2895 13.6308 16.9834 13.994 16.7979V16.7966Z" fill="#40306D"/>
<path d="M61.6203 47.9727C61.6203 47.9727 61.6125 47.9676 61.6086 47.965L50.0072 39.6634V16.7966C50.3652 16.9808 50.6674 17.2804 50.849 17.6786C50.849 17.6786 50.8503 17.6799 50.8503 17.6812C50.8516 17.6851 50.8542 17.689 50.8555 17.6929C50.8555 17.6929 50.8555 17.6942 50.8555 17.6955L63.6529 46.2943C64.221 47.5642 62.7527 48.7718 61.619 47.974L61.6203 47.9727Z" fill="#40306D"/>
<path d="M25.1855 22.3434L13.9901 39.6612V16.797C14.5335 16.5168 15.2054 16.5077 15.7801 16.8411C15.7827 16.8424 15.784 16.8437 15.7866 16.845L19.4107 18.9644L25.1855 22.3434Z" fill="#DACAFF"/>
<path d="M50.0036 16.797V39.6625L38.8069 22.3435L44.5829 18.9645L48.2071 16.845L48.211 16.8424C48.7856 16.5077 49.4588 16.5168 50.0023 16.7957L50.0036 16.797Z" fill="#DACAFF"/>
<path d="M49.9993 39.6621L33.6893 56.19L33.6738 56.2055C33.6738 56.2055 33.6673 56.212 33.6634 56.2159L33.6569 56.2224C33.6569 56.2224 33.653 56.225 33.6517 56.2276C32.7165 57.1356 31.2209 57.1239 30.3 56.1913L29.9277 55.8138L13.9901 39.6634L25.1855 22.3443L30.3921 14.2905C31.1431 13.1283 32.8436 13.1283 33.596 14.2905L49.9993 39.6634V39.6621Z" fill="#40306D"/>
<path d="M82.2852 38.5859V26.0176C82.2852 24.8457 82.7051 23.8398 83.5449 23C84.3848 22.1406 85.4004 21.7109 86.5918 21.7109C87.7441 21.7109 88.7305 22.1406 89.5508 23C90.3906 23.8398 90.8105 24.8457 90.8105 26.0176V38.5859C90.8105 40.1875 91.3867 41.5742 92.5391 42.7461C93.7109 43.8984 95.0977 44.4746 96.6992 44.4746C98.2812 44.4746 99.6484 43.8984 100.801 42.7461C101.973 41.5742 102.559 40.1875 102.559 38.5859V26.0176C102.559 24.8652 102.979 23.8594 103.818 23C104.658 22.1406 105.654 21.7109 106.807 21.7109C107.998 21.7109 109.014 22.1406 109.854 23C110.693 23.8398 111.113 24.8457 111.113 26.0176V38.5859C111.113 42.5312 109.697 45.9199 106.865 48.752C104.033 51.584 100.645 53 96.6992 53C92.7539 53 89.3652 51.584 86.5332 48.752C83.7012 45.9199 82.2852 42.5312 82.2852 38.5859ZM120.484 36.2129C120.484 33.5957 121.128 31.1738 122.417 28.9473C123.706 26.7207 125.464 24.9629 127.691 23.6738C129.917 22.3652 132.339 21.7109 134.956 21.7109C137.554 21.7109 139.956 22.3652 142.163 23.6738C144.39 24.9629 146.148 26.7207 147.437 28.9473C148.726 31.1738 149.37 33.5957 149.37 36.2129V48.7812C149.37 49.9336 148.941 50.9297 148.081 51.7695C147.241 52.5898 146.236 53 145.064 53C143.872 53 142.857 52.5898 142.017 51.7695C141.177 50.9297 140.757 49.9336 140.757 48.7812V36.2129C140.757 34.5527 140.181 33.1465 139.029 31.9941C137.896 30.8418 136.538 30.2656 134.956 30.2656C133.335 30.2656 131.948 30.8418 130.796 31.9941C129.663 33.1465 129.097 34.5527 129.097 36.2129V48.7812C129.097 49.9336 128.677 50.9297 127.837 51.7695C126.997 52.5898 125.982 53 124.79 53C123.618 53 122.603 52.5898 121.743 51.7695C120.904 50.9297 120.484 49.9336 120.484 48.7812V36.2129ZM172.745 10.9883H177.198C178.409 10.9883 179.424 11.3984 180.245 12.2188C181.084 13.0391 181.504 14.0449 181.504 15.2363C181.504 16.4277 181.084 17.4434 180.245 18.2832C179.424 19.123 178.409 19.543 177.198 19.543H172.745C172.256 19.543 171.846 19.709 171.514 20.041C171.202 20.3535 171.045 20.7539 171.045 21.2422V21.7109H177.198C178.409 21.7109 179.424 22.1309 180.245 22.9707C181.084 23.8105 181.504 24.8262 181.504 26.0176C181.504 27.1504 181.084 28.1465 180.245 29.0059C179.405 29.8457 178.389 30.2656 177.198 30.2656H171.045V48.7812C171.045 49.9531 170.625 50.9492 169.786 51.7695C168.946 52.5898 167.911 53 166.68 53C165.528 53 164.532 52.5898 163.692 51.7695C162.871 50.9297 162.461 49.9336 162.461 48.7812V30.2656H160.528C159.336 30.2656 158.321 29.8457 157.481 29.0059C156.641 28.1465 156.221 27.1504 156.221 26.0176C156.221 24.8262 156.641 23.8105 157.481 22.9707C158.321 22.1309 159.336 21.7109 160.528 21.7109H162.461V21.2422C162.461 18.4297 163.467 16.0176 165.479 14.0059C167.51 11.9941 169.932 10.9883 172.745 10.9883ZM188.531 43.4492C187.711 41.5156 187.3 39.4844 187.3 37.3555C187.3 35.2266 187.711 33.1953 188.531 31.2617C189.351 29.3281 190.455 27.668 191.841 26.2812C193.248 24.875 194.918 23.7617 196.851 22.9414C198.785 22.1211 200.816 21.7109 202.945 21.7109C205.054 21.7109 207.066 22.1211 208.98 22.9414C210.914 23.7617 212.574 24.875 213.961 26.2812C215.347 27.668 216.451 29.3281 217.271 31.2617C218.091 33.1953 218.502 35.2266 218.502 37.3555C218.502 39.4844 218.091 41.5156 217.271 43.4492C216.451 45.3828 215.347 47.0527 213.961 48.459C212.574 49.8457 210.914 50.9492 208.98 51.7695C207.066 52.5898 205.054 53 202.945 53C200.816 53 198.785 52.5898 196.851 51.7695C194.918 50.9492 193.248 49.8457 191.841 48.459C190.455 47.0527 189.351 45.3828 188.531 43.4492ZM209.976 37.3555C209.976 35.4023 209.283 33.7324 207.896 32.3457C206.509 30.959 204.859 30.2656 202.945 30.2656C200.972 30.2656 199.283 30.959 197.877 32.3457C196.47 33.7324 195.767 35.4023 195.767 37.3555C195.767 39.3281 196.47 41.0078 197.877 42.3945C199.283 43.7812 200.972 44.4746 202.945 44.4746C204.879 44.4746 206.529 43.7812 207.896 42.3945C209.283 41.0078 209.976 39.3281 209.976 37.3555ZM227.813 15.2949C227.813 14.0645 228.223 13.0391 229.044 12.2188C229.884 11.3984 230.909 10.9883 232.12 10.9883C233.292 10.9883 234.288 11.4082 235.108 12.248C235.948 13.0879 236.368 14.1035 236.368 15.2949V48.7812C236.368 49.9336 235.948 50.9297 235.108 51.7695C234.268 52.5898 233.272 53 232.12 53C230.929 53 229.913 52.5898 229.073 51.7695C228.233 50.9297 227.813 49.9336 227.813 48.7812V15.2949ZM261.236 30.2656C259.283 30.2656 257.623 30.959 256.256 32.3457C254.889 33.7324 254.205 35.4023 254.205 37.3555C254.205 39.3281 254.889 41.0078 256.256 42.3945C257.623 43.7812 259.283 44.4746 261.236 44.4746C263.209 44.4746 264.869 43.791 266.217 42.4238C267.584 41.0371 268.268 39.3477 268.268 37.3555C268.268 35.4023 267.584 33.7324 266.217 32.3457C264.869 30.959 263.209 30.2656 261.236 30.2656ZM261.236 53C259.127 53 257.105 52.5898 255.172 51.7695C253.258 50.9492 251.598 49.8457 250.191 48.459C248.805 47.0527 247.701 45.3828 246.881 43.4492C246.061 41.5156 245.65 39.4844 245.65 37.3555C245.65 35.2266 246.061 33.1953 246.881 31.2617C247.701 29.3281 248.805 27.668 250.191 26.2812C251.598 24.875 253.258 23.7617 255.172 22.9414C257.105 22.1211 259.127 21.7109 261.236 21.7109C263.678 21.7109 266.021 22.2578 268.268 23.3516V15.2363C268.268 14.0449 268.688 13.0391 269.527 12.2188C270.387 11.3984 271.422 10.9883 272.633 10.9883C273.805 10.9883 274.801 11.3984 275.621 12.2188C276.441 13.0391 276.852 14.0449 276.852 15.2363V37.3555C276.852 40.207 276.158 42.834 274.771 45.2363C273.385 47.6191 271.49 49.5137 269.088 50.9199C266.705 52.3066 264.088 53 261.236 53Z" fill="#40306D"/>
</svg>
